<svg width="198" height="48" viewBox="0 0 198 48" fill="none" xmlns="http://www.w3.org/2000/svg">
<path d="M22.0689 44.6C19.0689 44.6 16.2689 44.04 13.6689 42.92C11.0689 41.8 8.78891 40.26 6.82891 38.3C4.86891 36.3 3.32891 34 2.20891 31.4C1.12891 28.76 0.588906 25.94 0.588906 22.94C0.588906 19.94 1.12891 17.14 2.20891 14.54C3.32891 11.94 4.84891 9.66 6.76891 7.7C8.72891 5.7 10.9889 4.16 13.5489 3.08C16.1489 1.96 18.9489 1.4 21.9489 1.4C24.9489 1.4 27.7289 1.96 30.2889 3.08C32.8889 4.16 35.1689 5.7 37.1289 7.7C39.0889 9.66 40.6089 11.96 41.6889 14.6C42.8089 17.2 43.3689 20 43.3689 23C43.3689 26 42.8089 28.82 41.6889 31.46C40.6089 34.06 39.0889 36.34 37.1289 38.3C35.2089 40.26 32.9489 41.8 30.3489 42.92C27.7889 44.04 25.0289 44.6 22.0689 44.6ZM21.9489 38C24.7889 38 27.2689 37.36 29.3889 36.08C31.5489 34.8 33.2289 33.04 34.4289 30.8C35.6689 28.52 36.2889 25.9 36.2889 22.94C36.2889 20.74 35.9289 18.74 35.2089 16.94C34.5289 15.1 33.5489 13.52 32.2689 12.2C30.9889 10.84 29.4689 9.8 27.7089 9.08C25.9889 8.36 24.0689 8 21.9489 8C19.1489 8 16.6689 8.64 14.5089 9.92C12.3889 11.16 10.7089 12.9 9.46891 15.14C8.26891 17.38 7.66891 19.98 7.66891 22.94C7.66891 25.14 8.00891 27.18 8.68891 29.06C9.40891 30.9 10.3889 32.48 11.6289 33.8C12.9089 35.12 14.4289 36.16 16.1889 36.92C17.9489 37.64 19.8689 38 21.9489 38ZM41.2689 46.88L22.3689 27.98L26.8089 23.54L45.7089 42.44L41.2689 46.88ZM51.0077 44V15.2H57.6077V44H51.0077ZM57.6077 27.98L55.3277 26.84C55.3277 23.2 56.1277 20.26 57.7277 18.02C59.3677 15.74 61.8277 14.6 65.1077 14.6C66.5477 14.6 67.8477 14.86 69.0077 15.38C70.1677 15.9 71.2477 16.74 72.2477 17.9L67.9277 22.34C67.4077 21.78 66.8277 21.38 66.1877 21.14C65.5477 20.9 64.8077 20.78 63.9677 20.78C62.1277 20.78 60.6077 21.36 59.4077 22.52C58.2077 23.68 57.6077 25.5 57.6077 27.98Z" fill="black"/>
<path d="M97.1359 44.72C93.9759 44.72 91.0359 44.16 88.3159 43.04C85.5959 41.92 83.2159 40.36 81.1759 38.36C79.1759 36.36 77.5959 34.04 76.4359 31.4C75.3159 28.72 74.7559 25.84 74.7559 22.76C74.7559 19.64 75.3159 16.76 76.4359 14.12C77.5559 11.48 79.1159 9.18 81.1159 7.22C83.1559 5.22 85.5159 3.68 88.1959 2.6C90.9159 1.48 93.8559 0.919997 97.0159 0.919997C100.216 0.919997 103.156 1.48 105.836 2.6C108.556 3.68 110.916 5.22 112.916 7.22C114.956 9.18 116.536 11.5 117.656 14.18C118.776 16.82 119.336 19.7 119.336 22.82C119.336 25.9 118.776 28.78 117.656 31.46C116.536 34.1 114.956 36.42 112.916 38.42C110.916 40.38 108.576 41.92 105.896 43.04C103.216 44.16 100.296 44.72 97.1359 44.72ZM97.0159 36.14C99.5759 36.14 101.796 35.58 103.676 34.46C105.556 33.34 107.016 31.78 108.056 29.78C109.136 27.74 109.676 25.4 109.676 22.76C109.676 20.76 109.376 18.96 108.776 17.36C108.176 15.72 107.316 14.32 106.196 13.16C105.076 11.96 103.736 11.06 102.176 10.46C100.656 9.82 98.9359 9.5 97.0159 9.5C94.4959 9.5 92.2959 10.06 90.4159 11.18C88.5359 12.26 87.0559 13.8 85.9759 15.8C84.9359 17.76 84.4159 20.08 84.4159 22.76C84.4159 24.76 84.7159 26.58 85.3159 28.22C85.9159 29.86 86.7759 31.28 87.8959 32.48C89.0159 33.64 90.3359 34.54 91.8559 35.18C93.4159 35.82 95.1359 36.14 97.0159 36.14ZM116.036 47.36L96.2359 27.56L101.696 22.1L121.496 41.9L116.036 47.36ZM138.196 44.66C135.516 44.66 133.136 44.12 131.056 43.04C129.016 41.92 127.416 40.4 126.256 38.48C125.096 36.52 124.516 34.28 124.516 31.76V14.84H133.696V31.64C133.696 32.64 133.856 33.5 134.176 34.22C134.536 34.94 135.056 35.5 135.736 35.9C136.416 36.3 137.236 36.5 138.196 36.5C139.556 36.5 140.636 36.08 141.436 35.24C142.236 34.36 142.636 33.16 142.636 31.64V14.84H151.816V31.7C151.816 34.26 151.236 36.52 150.076 38.48C148.916 40.4 147.316 41.92 145.276 43.04C143.236 44.12 140.876 44.66 138.196 44.66ZM157.58 44V14.84H166.76V44H157.58ZM162.2 10.82C160.76 10.82 159.56 10.34 158.6 9.38C157.68 8.38 157.22 7.18 157.22 5.78C157.22 4.34 157.68 3.14 158.6 2.18C159.56 1.22 160.76 0.739999 162.2 0.739999C163.64 0.739999 164.82 1.22 165.74 2.18C166.66 3.14 167.12 4.34 167.12 5.78C167.12 7.18 166.66 8.38 165.74 9.38C164.82 10.34 163.64 10.82 162.2 10.82ZM171.364 38.6L186.004 20.18H197.164L182.524 38.6H171.364ZM171.364 44V38.6L177.904 36.32H196.804V44H171.364ZM172.444 22.52V14.84H197.164V20.18L190.684 22.52H172.444Z" fill="#4FD8F8"/>
</svg>
