<svg width="65" height="64" viewBox="0 0 65 64" fill="none" xmlns="http://www.w3.org/2000/svg">
<rect width="65" height="64" fill="#FDA52B"/>
<path fill-rule="evenodd" clip-rule="evenodd" d="M51 18.8994C45.3404 15.7761 38.8425 14 31.9325 14C25.0774 14 18.6279 15.748 13 18.8253L14.9624 22.2463C20.0126 19.5043 25.792 17.948 31.9325 17.948C38.1279 17.948 43.9557 19.5322 49.0378 22.3201L51 18.8994Z" fill="white"/>
<path fill-rule="evenodd" clip-rule="evenodd" d="M32.1836 19.923C26.5262 19.8781 20.9589 21.3498 16.0535 24.1868L31.9325 51.9999L41.0328 36.6263C40.7855 36.6755 40.5298 36.7013 40.2681 36.7013C38.1017 36.7013 36.3455 34.9337 36.3455 32.7532C36.3455 30.5728 38.1017 28.8052 40.2681 28.8052C42.0308 28.8052 43.5218 29.9752 44.0165 31.5858L48.2451 24.4421C43.3847 21.5276 37.8411 19.9679 32.1836 19.923ZM32.4229 43.6104C34.5893 43.6104 36.3455 41.8428 36.3455 39.6623C36.3455 37.4819 34.5893 35.7142 32.4229 35.7142C30.2564 35.7142 28.5002 37.4819 28.5002 39.6623C28.5002 41.8428 30.2564 43.6104 32.4229 43.6104ZM28.3507 32.1852L28.9905 32.7532L29.6304 32.1852C31.9031 30.1757 33.4035 28.846 33.4035 27.2238C33.4035 25.8941 32.3356 24.8571 30.9764 24.8571C30.2085 24.8571 29.4716 25.2056 28.9905 25.7521C28.5095 25.2056 27.7726 24.8571 27.0047 24.8571C25.6455 24.8571 24.5776 25.8941 24.5776 27.2238C24.5776 28.846 26.078 30.1757 28.3507 32.1852Z" fill="white"/>
</svg>
